HIERARCHY
ROOT root
{
	OFFSET	0	13.1	24.9
	CHANNELS 6  Xposition Yposition Zposition Xrotation Yrotation Zrotation
	JOINT spine_1
	{
		OFFSET	0	9.99999	0
		CHANNELS 3  Xrotation Yrotation Zrotation
		JOINT spine_2
		{
			OFFSET	0	112	-10
			CHANNELS 3  Xrotation Yrotation Zrotation
			JOINT spine_3
			{
				OFFSET	0	206.5	19.3
				CHANNELS 3  Xrotation Yrotation Zrotation
				JOINT spine_4
				{
					OFFSET	0	110.4	14.6
					CHANNELS 3  Xrotation Yrotation Zrotation
					JOINT neck_1
					{
						OFFSET	0	71.8	-50.3
						CHANNELS 3  Xrotation Yrotation Zrotation
						JOINT neck_2
						{
							OFFSET	0	86.2	-25.8
							CHANNELS 3  Xrotation Yrotation Zrotation
							JOINT head_ee
							{
								OFFSET	0	179.8	-8.7
								CHANNELS 3  Xrotation Yrotation Zrotation
								End Site
								{
									OFFSET	1	0	0
								}
							}
						}
					}
					JOINT left_clavicle
					{
						OFFSET	-43.2	22.4	-70.8
						CHANNELS 3  Xrotation Yrotation Zrotation
						JOINT left_shoulder
						{
							OFFSET	-93.9	-5.79999	48.7
							CHANNELS 3  Xrotation Yrotation Zrotation
							JOINT left_elbow
							{
								OFFSET	-291.4	-30.8	15.2
								CHANNELS 3  Xrotation Yrotation Zrotation
								JOINT left_lowarm_twist
								{
									OFFSET	-110.7	-3.89999	13.6
									CHANNELS 3  Xrotation Yrotation Zrotation
									JOINT left_hand
									{
										OFFSET	-110.7	-3.89999	13.6
										CHANNELS 3  Xrotation Yrotation Zrotation
										JOINT left_ee
										{
											OFFSET	-80.8	-5.10001	12.1
											CHANNELS 3  Xrotation Yrotation Zrotation
											End Site
											{
												OFFSET	1	0	0
											}
										}
									}
								}
							}
						}
					}
					JOINT right_clavicle
					{
						OFFSET	43.2	22.4	-70.8
						CHANNELS 3  Xrotation Yrotation Zrotation
						JOINT right_shoulder
						{
							OFFSET	93.9	-5.79999	48.7
							CHANNELS 3  Xrotation Yrotation Zrotation
							JOINT right_elbow
							{
								OFFSET	291.4	-30.8	15.2
								CHANNELS 3  Xrotation Yrotation Zrotation
								JOINT right_lowarm_twist
								{
									OFFSET	110.7	-3.89999	13.6
									CHANNELS 3  Xrotation Yrotation Zrotation
									JOINT right_hand
									{
										OFFSET	110.7	-3.89999	13.6
										CHANNELS 3  Xrotation Yrotation Zrotation
										JOINT right_ee
										{
											OFFSET	80.8	-5.10001	12.1
											CHANNELS 3  Xrotation Yrotation Zrotation
											End Site
											{
												OFFSET	1	0	0
											}
										}
									}
								}
							}
						}
					}
				}
			}
		}
	}
	JOINT left_hip
	{
		OFFSET	-82.8	-127.5	0.300001
		CHANNELS 3  Xrotation Yrotation Zrotation
		JOINT left_knee
		{
			OFFSET	-28.2	-396.7	2.2
			CHANNELS 3  Xrotation Yrotation Zrotation
			JOINT left_ankle
			{
				OFFSET	-11.7	-411.3	35.4
				CHANNELS 3  Xrotation Yrotation Zrotation
				JOINT left_toes
				{
					OFFSET	0	-60	-88.6
					CHANNELS 3  Xrotation Yrotation Zrotation
					JOINT left_foot_ee
					{
						OFFSET	-22.5	-16.5	-42.2
						CHANNELS 3  Xrotation Yrotation Zrotation
						End Site
						{
							OFFSET	1	0	0
						}
					}
				}
			}
		}
	}
	JOINT right_hip
	{
		OFFSET	82.8	-127.5	0.300001
		CHANNELS 3  Xrotation Yrotation Zrotation
		JOINT right_knee
		{
			OFFSET	28.2	-396.7	2.2
			CHANNELS 3  Xrotation Yrotation Zrotation
			JOINT right_ankle
			{
				OFFSET	11.7	-411.3	35.4
				CHANNELS 3  Xrotation Yrotation Zrotation
				JOINT right_toes
				{
					OFFSET	0	-60	-88.6
					CHANNELS 3  Xrotation Yrotation Zrotation
					JOINT right_foot_ee
					{
						OFFSET	22.5	-16.5	-42.2
						CHANNELS 3  Xrotation Yrotation Zrotation
						End Site
						{
							OFFSET	1	0	0
						}
					}
				}
			}
		}
	}
}
MOTION
Frames: 6
Frame Time: 0.02
369.272 682.584 -471.578 -163.495 -80.8486 -157.412 1.5621 -0.33113 -2.94442 1.56691 -0.143181 -2.9595 1.57467 0.401803 -2.93561 1.56265 -0.0666541 -2.96221 -21.1472 8.69181 -1.76543 -21.6455 17.6198 2.26411 -0.0 0.0 -0.0 4.53138 17.7943 9.04576 -5.61119 -22.3431 76.724 2.96097 -55.704 1.56483 -11.5586 -0.547552 1.37014 -1.18712 23.2162 2.41027 -0.0 0.0 -0.0 6.7085 -9.12709 -12.8898 -5.0047 3.69022 -61.4217 0.697611 19.064 -0.117142 69.8089 2.72056 7.9343 7.95853 -4.24913 -73.8134 0.0 0.0 0.0 3.28516 -1.53998 -10.6096 -4.40109 0.156022 0.657249 24.4356 26.8683 -3.47704 -25.2706 0.0 0.0 -0.0 0.0 -0.0 25.096 15.0447 -11.9787 -35.203 0.19012 -5.31517 27.7765 -12.1115 3.66401 -26.4252 0.0 0.0 0.0 0.0 0.0 
380.288 677.907 -466.76 -164.085 -81.1674 -157.659 1.44824 -0.480841 -2.84752 1.4527 -0.298748 -2.87232 1.4683 0.238024 -2.87798 1.45681 -0.219294 -2.87947 -20.9716 9.52109 -2.59087 -21.5808 19.6236 1.86881 -0.0 0.0 -0.0 4.57473 17.9962 9.1113 -5.5775 -23.3642 76.0183 2.85102 -54.6888 1.47454 -12.0733 -0.578288 1.4284 -1.2165 22.0379 1.72401 -0.0 0.0 -0.0 6.6736 -9.8709 -12.8027 -5.48922 4.73176 -61.3318 0.68387 18.7148 -0.112693 67.5646 2.49165 7.75964 7.86232 -6.18498 -73.6088 0.0 0.0 0.0 3.56158 -2.18941 -12.892 -5.83172 0.195803 0.873194 26.0229 23.7768 -3.60941 -28.3751 0.0 0.0 -0.0 0.0 -0.0 25.9826 14.9848 -13.4513 -37.9068 0.339 -5.70301 28.8301 -16.5714 3.82308 -25.1341 0.0 0.0 0.0 0.0 0.0 
382.481 674.353 -464.957 -163.843 -80.8389 -157.455 1.42067 -0.263756 -2.79093 1.425 -0.0856993 -2.80204 1.42964 0.436489 -2.76919 1.41894 -0.00615125 -2.80334 -20.1264 8.85264 -1.02748 -20.5885 17.5802 2.85356 -0.0 0.0 -0.0 4.78819 18.9081 9.42735 -4.91244 -23.0747 75.8475 2.90361 -55.1809 1.51759 -13.4233 -0.661377 1.57984 -0.983061 17.733 1.23044 -0.0 0.0 -0.0 7.13428 -8.85063 -13.67 -5.57099 4.96461 -60.2412 0.436899 12.2122 -0.0467383 64.7167 2.21136 7.52539 7.80954 -7.2829 -73.4397 0.0 0.0 0.0 3.57215 -5.82426 -12.7722 -10.9665 0.293919 1.65476 32.2405 25.3148 -4.36993 -28.9628 0.0 0.0 -0.0 0.0 -0.0 25.8324 8.70487 -12.0273 -39.2029 0.416838 -5.88639 29.07 -14.3779 3.82617 -23.4416 0.0 0.0 0.0 0.0 0.0 
387.789 672.048 -461.493 -162.704 -81.0017 -156.238 1.40898 -0.0813513 -2.69363 1.41301 0.0901531 -2.69335 1.40904 0.590183 -2.62948 1.39944 0.167655 -2.68964 -20.1341 7.98657 -0.265359 -20.4926 15.5287 3.16843 -0.0 0.0 -0.0 4.65063 19.3624 9.21062 -4.61786 -24.6484 75.5545 2.92649 -55.3912 1.5364 -15.9978 -0.829657 1.86313 -0.693548 17.6651 2.95642 -0.0 0.0 -0.0 7.44928 -8.42044 -14.2631 -5.33319 3.93836 -59.8219 0.288703 8.13915 -0.0205404 63.5927 2.10401 7.42918 7.72146 -9.33775 -73.204 0.0 0.0 0.0 5.12134 -1.97542 -12.7353 -9.73119 0.276723 1.466 33.2108 26.2791 -4.50476 -30.7896 0.0 0.0 -0.0 0.0 -0.0 25.7867 5.85359 -11.9325 -39.9188 0.461612 -5.98692 29.7878 -16.1187 3.92411 -24.2363 0.0 0.0 0.0 0.0 0.0 
390.0 669.751 -459.849 -161.797 -80.9834 -155.399 1.39058 -0.250332 -2.55864 1.39422 -0.0870668 -2.56937 1.39854 0.393237 -2.54061 1.38953 -0.0128031 -2.57081 -21.2953 7.16672 1.63627 -21.5585 13.0331 4.70713 -0.0 0.0 -0.0 4.59045 19.8459 9.1126 -4.34882 -25.6021 74.5083 2.8647 -54.818 1.48572 -16.5791 -0.869412 1.92604 -0.389169 16.1855 4.20499 -0.0 0.0 -0.0 7.68892 -6.85525 -14.7762 -6.32937 5.03419 -59.659 0.213324 6.03245 -0.0112404 58.2649 1.62191 6.94558 7.52258 -12.9111 -71.1716 0.0 0.0 0.0 5.86566 -2.32934 -12.6228 -11.9487 0.304686 1.80508 33.5953 25.8431 -4.53449 -29.1556 0.0 0.0 -0.0 0.0 -0.0 26.7559 4.35295 -11.4775 -42.5147 0.634451 -6.34668 28.679 -16.9794 3.81111 -23.0631 0.0 0.0 0.0 0.0 0.0 
393.976 663.118 -458.444 -163.911 -81.123 -157.411 1.4108 -0.211239 -2.57382 1.41449 -0.0470874 -2.58204 1.41697 0.434099 -2.54575 1.40793 0.0267365 -2.58233 -21.5865 5.82676 0.892011 -21.774 10.8144 3.44063 -0.0 0.0 -0.0 4.83122 21.6491 9.43013 -4.08026 -25.302 74.3197 2.90694 -55.2116 1.52032 -17.6701 -0.945735 2.04301 -0.310661 18.5202 5.62521 -0.0 0.0 -0.0 8.36177 -3.11695 -16.2196 -7.64894 2.27294 -59.2285 0.22397 6.33113 -0.0123868 57.1061 1.52317 6.83464 7.04367 -16.2647 -63.7546 0.0 0.0 0.0 6.61973 -4.24486 -13.8857 -19.8861 0.296977 3.02194 42.0986 23.255 -5.30809 -27.5991 0.0 0.0 -0.0 0.0 -0.0 26.937 4.06804 -11.7527 -45.0449 0.81851 -6.68961 31.7209 -16.8481 4.14352 -21.2185 0.0 0.0 0.0 0.0 0.0 
